<?xml version="1.0" encoding="UTF-8"?>
<!-- Generated by Pixelmator Pro 3.5.7 -->
<svg width="3028" height="457" viewBox="0 0 3028 457" xmlns="http://www.w3.org/2000/svg">
    <g id="-1">
        <g id="g1">
            <path id="path1" fill="#163e6c" stroke="none" d="M 232.816162 298.023315 L 287.044495 158.873718 L 405.614502 158.873718 L 378.499939 228.448792 L 524.803223 228.448792 L 596.871582 43.525452 L 596.871216 43.525452 L 596.871216 43.525024 L 84.76825 43.525452 L 140.809113 158.873718 L 212.811157 158.873718 L 119.240753 214.040466 L 41.559113 413.372101 L 41.559113 413.372498 L 453.047852 413.372101 L 498.001648 298.023315 L 232.816162 298.023315 Z"/>
            <path id="path2" fill="#163e6c" stroke="none" d="M 2405.40332 43.525452 L 2341.28125 208.061646 L 2222.711426 208.061646 L 2222.711426 208.062073 L 2286.83374 43.525452 L 2140.530029 43.525452 L 1996.395508 413.372101 L 2142.698975 413.372101 L 2173.778564 333.62204 L 2173.778564 333.622559 L 2317.383057 269.383301 L 2261.269287 413.372101 L 2407.572754 413.372101 L 2551.70752 43.525452 L 2405.40332 43.525452 Z"/>
            <path id="path3" fill="#163e6c" stroke="none" d="M 917.302368 43.525452 L 721.401978 209.919556 L 786.248291 43.525452 L 639.944519 43.525452 L 495.809509 413.372101 L 642.113281 413.372101 L 837.425781 248.486633 L 773.167786 413.372101 L 919.471558 413.372101 L 1041.701538 99.732544 L 1080.035767 158.873718 L 1172.243164 158.873718 L 961.918213 413.372101 L 1130.396606 413.372101 L 1340.721924 158.873718 L 1388.330811 158.873718 L 1289.149048 413.372101 L 1435.452881 413.372101 L 1558.375732 97.955383 L 1597.861572 158.873718 L 1690.069092 158.873718 L 1479.744019 413.372101 L 1648.222412 413.372101 L 1748.242432 292.345886 L 1825.952881 364.674561 L 1806.974854 413.372101 L 1953.278564 413.372101 L 2097.413818 43.525452 L 917.302368 43.525452 Z M 1872.114014 246.22583 L 1786.357422 246.22583 L 1858.547852 158.873718 L 1906.156494 158.873718 L 1872.114014 246.22583 Z"/>
            <path id="path4" fill="#163e6c" stroke="none" d="M 2949.362061 158.873718 L 2994.314941 43.525024 L 2583.137451 43.525024 L 2538.184326 158.873718 L 2736.588623 158.873718 L 2643.018066 214.040466 L 2610.289063 298.023315 L 2559.093994 298.023315 L 2514.141113 413.372101 L 2768.447998 413.372101 L 2813.400879 298.023315 L 2756.593262 298.023315 L 2810.822021 158.873718 L 2949.362061 158.873718 Z"/>
        </g>
    </g>
</svg>
